# Blender v2.78 (sub 0) OBJ File: 'water.blend'
# www.blender.org
mtllib water.mtl
o Plane
v 0.000000 0.000000 0.000000
v 0.000000 0.000000 -5.000000
v 0.000000 0.000000 5.000000
v 0.000000 0.000000 -7.500000
v 0.000000 0.000000 2.500000
v 2.500000 0.000000 0.000000
v 0.000000 0.000000 -2.500000
v 0.000000 0.000000 7.500000
v -2.500000 0.000000 0.000000
v 2.500000 0.000000 5.000000
v -2.500000 0.000000 5.000000
v -2.500000 0.000000 -5.000000
v 2.500000 0.000000 -5.000000
v 2.500000 0.000000 -2.500000
v 2.500000 0.000000 -7.500000
v -2.500000 0.000000 -2.500000
v -2.500000 0.000000 7.500000
v 2.500000 0.000000 7.500000
v 2.500000 0.000000 2.500000
v -2.500000 0.000000 2.500000
v -2.500000 0.000000 -7.500000
v 0.000000 0.000000 1.250000
v 1.250000 0.000000 0.000000
v 0.000000 0.000000 -3.750000
v 0.000000 0.000000 6.250000
v 1.250000 0.000000 5.000000
v 1.250000 0.000000 -5.000000
v 0.000000 0.000000 -6.250000
v 0.000000 0.000000 3.750000
v 0.000000 0.000000 -1.250000
v -1.250000 0.000000 0.000000
v -1.250000 0.000000 5.000000
v -1.250000 0.000000 -5.000000
v 2.500000 0.000000 -3.750000
v 2.500000 0.000000 -1.250000
v 1.250000 0.000000 -2.500000
v 2.500000 0.000000 -6.250000
v 1.250000 0.000000 -7.500000
v -2.500000 0.000000 -3.750000
v -2.500000 0.000000 -1.250000
v -1.250000 0.000000 -2.500000
v -2.500000 0.000000 6.250000
v -1.250000 0.000000 7.500000
v 2.500000 0.000000 6.250000
v 1.250000 0.000000 7.500000
v 2.500000 0.000000 1.250000
v 2.500000 0.000000 3.750000
v 1.250000 0.000000 2.500000
v -2.500000 0.000000 1.250000
v -2.500000 0.000000 3.750000
v -1.250000 0.000000 2.500000
v -2.500000 0.000000 -6.250000
v -1.250000 0.000000 -7.500000
v -1.250000 0.000000 -6.250000
v -1.250000 0.000000 3.750000
v 1.250000 0.000000 3.750000
v 1.250000 0.000000 1.250000
v 1.250000 0.000000 6.250000
v -1.250000 0.000000 -1.250000
v 1.250000 0.000000 -6.250000
v 1.250000 0.000000 -1.250000
v 1.250000 0.000000 -3.750000
v -1.250000 0.000000 -3.750000
v -1.250000 0.000000 6.250000
v -1.250000 0.000000 1.250000
v 0.000000 0.000000 0.625000
v 0.625000 0.000000 0.000000
v 0.000000 0.000000 -4.375000
v 0.000000 0.000000 5.625000
v 0.625000 0.000000 5.000000
v 0.625000 0.000000 -5.000000
v 0.000000 0.000000 -6.875000
v 0.000000 0.000000 3.125000
v 0.000000 0.000000 -1.875000
v 0.000000 0.000000 8.125000
v -1.875000 0.000000 0.000000
v -1.875000 0.000000 5.000000
v -1.875000 0.000000 -5.000000
v 2.500000 0.000000 -4.375000
v 2.500000 0.000000 -1.875000
v 0.625000 0.000000 -2.500000
v 2.500000 0.000000 -6.875000
v 0.625000 0.000000 -7.500000
v -2.500000 0.000000 -4.375000
v -2.500000 0.000000 -1.875000
v -1.875000 0.000000 -2.500000
v -2.500000 0.000000 5.625000
v -2.500000 0.000000 8.125000
v -1.875000 0.000000 7.500000
v 2.500000 0.000000 5.625000
v 2.500000 0.000000 8.125000
v 0.625000 0.000000 7.500000
v 2.500000 0.000000 0.625000
v 2.500000 0.000000 3.125000
v 0.625000 0.000000 2.500000
v -2.500000 0.000000 0.625000
v -2.500000 0.000000 3.125000
v -1.875000 0.000000 2.500000
v -2.500000 0.000000 -6.875000
v -1.875000 0.000000 -7.500000
v 0.000000 0.000000 -8.125000
v 0.000000 0.000000 1.875000
v 1.875000 0.000000 0.000000
v 0.000000 0.000000 -3.125000
v 0.000000 0.000000 6.875000
v 1.875000 0.000000 5.000000
v 1.875000 0.000000 -5.000000
v 0.000000 0.000000 -5.625000
v 0.000000 0.000000 4.375000
v 0.000000 0.000000 -0.625000
v -0.625000 0.000000 0.000000
v -0.625000 0.000000 5.000000
v -0.625000 0.000000 -5.000000
v 2.500000 0.000000 -3.125000
v 2.500000 0.000000 -0.625000
v 1.875000 0.000000 -2.500000
v 2.500000 0.000000 -8.125000
v 2.500000 0.000000 -5.625000
v 1.875000 0.000000 -7.500000
v -2.500000 0.000000 -3.125000
v -2.500000 0.000000 -0.625000
v -0.625000 0.000000 -2.500000
v -2.500000 0.000000 6.875000
v -0.625000 0.000000 7.500000
v 2.500000 0.000000 6.875000
v 1.875000 0.000000 7.500000
v 2.500000 0.000000 1.875000
v 2.500000 0.000000 4.375000
v 1.875000 0.000000 2.500000
v -2.500000 0.000000 1.875000
v -2.500000 0.000000 4.375000
v -0.625000 0.000000 2.500000
v -2.500000 0.000000 -8.125000
v -2.500000 0.000000 -5.625000
v -0.625000 0.000000 -7.500000
v -1.250000 0.000000 -6.875000
v -1.250000 0.000000 -5.625000
v -1.875000 0.000000 -6.250000
v -0.625000 0.000000 -6.250000
v -1.250000 0.000000 3.125000
v -1.250000 0.000000 4.375000
v -1.875000 0.000000 3.750000
v -0.625000 0.000000 3.750000
v 1.250000 0.000000 3.125000
v 1.250000 0.000000 4.375000
v 0.625000 0.000000 3.750000
v 1.875000 0.000000 3.750000
v 1.250000 0.000000 0.625000
v 1.250000 0.000000 1.875000
v 0.625000 0.000000 1.250000
v 1.875000 0.000000 1.250000
v 1.250000 0.000000 8.125000
v 1.250000 0.000000 5.625000
v 1.250000 0.000000 6.875000
v 0.625000 0.000000 6.250000
v 1.875000 0.000000 6.250000
v -1.250000 0.000000 8.125000
v -1.250000 0.000000 -1.875000
v -1.250000 0.000000 -0.625000
v -1.875000 0.000000 -1.250000
v -0.625000 0.000000 -1.250000
v 1.250000 0.000000 -6.875000
v 1.250000 0.000000 -5.625000
v 0.625000 0.000000 -6.250000
v 1.875000 0.000000 -6.250000
v 1.250000 0.000000 -8.125000
v 1.250000 0.000000 -1.875000
v 1.250000 0.000000 -0.625000
v 0.625000 0.000000 -1.250000
v 1.875000 0.000000 -1.250000
v 1.250000 0.000000 -4.375000
v 1.250000 0.000000 -3.125000
v 0.625000 0.000000 -3.750000
v 1.875000 0.000000 -3.750000
v -1.250000 0.000000 -4.375000
v -1.250000 0.000000 -3.125000
v -1.875000 0.000000 -3.750000
v -0.625000 0.000000 -3.750000
v -1.250000 0.000000 5.625000
v -1.250000 0.000000 6.875000
v -1.875000 0.000000 6.250000
v -0.625000 0.000000 6.250000
v -1.250000 0.000000 0.625000
v -1.250000 0.000000 1.875000
v -1.875000 0.000000 1.250000
v -0.625000 0.000000 1.250000
v -1.250000 0.000000 -8.125000
v -0.625000 0.000000 -8.125000
v -1.875000 0.000000 -8.125000
v -0.625000 0.000000 1.875000
v -1.875000 0.000000 1.875000
v -1.875000 0.000000 0.625000
v -0.625000 0.000000 6.875000
v -1.875000 0.000000 6.875000
v -1.875000 0.000000 5.625000
v -0.625000 0.000000 -3.125000
v -1.875000 0.000000 -3.125000
v -1.875000 0.000000 -4.375000
v 1.875000 0.000000 -3.125000
v 0.625000 0.000000 -3.125000
v 0.625000 0.000000 -4.375000
v 1.875000 0.000000 -0.625000
v 0.625000 0.000000 -0.625000
v 0.625000 0.000000 -1.875000
v 1.875000 0.000000 -8.125000
v 0.625000 0.000000 -8.125000
v 1.875000 0.000000 -5.625000
v 0.625000 0.000000 -5.625000
v 0.625000 0.000000 -6.875000
v -0.625000 0.000000 -0.625000
v -1.875000 0.000000 -0.625000
v -1.875000 0.000000 -1.875000
v -1.875000 0.000000 8.125000
v 1.875000 0.000000 6.875000
v 0.625000 0.000000 6.875000
v 0.625000 0.000000 5.625000
v 0.625000 0.000000 8.125000
v 1.875000 0.000000 1.875000
v 0.625000 0.000000 1.875000
v 0.625000 0.000000 0.625000
v 1.875000 0.000000 4.375000
v 0.625000 0.000000 4.375000
v 0.625000 0.000000 3.125000
v -0.625000 0.000000 4.375000
v -1.875000 0.000000 4.375000
v -1.875000 0.000000 3.125000
v -0.625000 0.000000 -5.625000
v -1.875000 0.000000 -5.625000
v -1.875000 0.000000 -6.875000
v -0.625000 0.000000 -6.875000
v -0.625000 0.000000 3.125000
v 1.875000 0.000000 3.125000
v 1.875000 0.000000 0.625000
v 1.875000 0.000000 8.125000
v 1.875000 0.000000 5.625000
v -0.625000 0.000000 8.125000
v -0.625000 0.000000 -1.875000
v 1.875000 0.000000 -6.875000
v 1.875000 0.000000 -1.875000
v 1.875000 0.000000 -4.375000
v -0.625000 0.000000 -4.375000
v -0.625000 0.000000 5.625000
v -0.625000 0.000000 0.625000
vn 0.0000 1.0000 0.0000
usemtl None
s off
f 243//1 66//1 1//1 111//1
f 242//1 69//1 3//1 112//1
f 241//1 68//1 2//1 113//1
f 240//1 79//1 13//1 107//1
f 239//1 80//1 14//1 116//1
f 238//1 82//1 15//1 119//1
f 237//1 74//1 7//1 122//1
f 236//1 75//1 8//1 124//1
f 235//1 90//1 10//1 106//1
f 234//1 91//1 18//1 126//1
f 233//1 93//1 6//1 103//1
f 232//1 94//1 19//1 129//1
f 231//1 73//1 5//1 132//1
f 230//1 72//1 4//1 135//1
f 229//1 136//1 53//1 100//1
f 228//1 137//1 54//1 138//1
f 227//1 108//1 28//1 139//1
f 226//1 140//1 51//1 98//1
f 225//1 141//1 55//1 142//1
f 224//1 109//1 29//1 143//1
f 223//1 144//1 48//1 95//1
f 222//1 145//1 56//1 146//1
f 221//1 128//1 47//1 147//1
f 220//1 148//1 23//1 67//1
f 219//1 149//1 57//1 150//1
f 218//1 127//1 46//1 151//1
f 217//1 152//1 45//1 92//1
f 216//1 153//1 26//1 70//1
f 215//1 154//1 58//1 155//1
f 214//1 125//1 44//1 156//1
f 213//1 157//1 43//1 89//1
f 212//1 158//1 41//1 86//1
f 211//1 159//1 59//1 160//1
f 210//1 110//1 30//1 161//1
f 209//1 162//1 38//1 83//1
f 208//1 163//1 60//1 164//1
f 207//1 118//1 37//1 165//1
f 204//1 167//1 36//1 81//1
f 203//1 168//1 61//1 169//1
f 202//1 115//1 35//1 170//1
f 201//1 171//1 27//1 71//1
f 200//1 172//1 62//1 173//1
f 199//1 114//1 34//1 174//1
f 198//1 175//1 33//1 78//1
f 197//1 176//1 63//1 177//1
f 196//1 104//1 24//1 178//1
f 195//1 179//1 32//1 77//1
f 194//1 180//1 64//1 181//1
f 193//1 105//1 25//1 182//1
f 192//1 183//1 31//1 76//1
f 191//1 184//1 65//1 185//1
f 190//1 102//1 22//1 186//1
f 53//1 135//1 188//1 187//1
f 135//1 4//1 101//1 188//1
f 21//1 100//1 189//1 133//1
f 100//1 53//1 187//1 189//1
f 184//1 190//1 186//1 65//1
f 51//1 132//1 190//1 184//1
f 132//1 5//1 102//1 190//1
f 130//1 191//1 185//1 49//1
f 20//1 98//1 191//1 130//1
f 98//1 51//1 184//1 191//1
f 96//1 192//1 76//1 9//1
f 49//1 185//1 192//1 96//1
f 185//1 65//1 183//1 192//1
f 180//1 193//1 182//1 64//1
f 43//1 124//1 193//1 180//1
f 124//1 8//1 105//1 193//1
f 123//1 194//1 181//1 42//1
f 17//1 89//1 194//1 123//1
f 89//1 43//1 180//1 194//1
f 87//1 195//1 77//1 11//1
f 42//1 181//1 195//1 87//1
f 181//1 64//1 179//1 195//1
f 176//1 196//1 178//1 63//1
f 41//1 122//1 196//1 176//1
f 122//1 7//1 104//1 196//1
f 120//1 197//1 177//1 39//1
f 16//1 86//1 197//1 120//1
f 86//1 41//1 176//1 197//1
f 84//1 198//1 78//1 12//1
f 39//1 177//1 198//1 84//1
f 177//1 63//1 175//1 198//1
f 172//1 199//1 174//1 62//1
f 36//1 116//1 199//1 172//1
f 116//1 14//1 114//1 199//1
f 104//1 200//1 173//1 24//1
f 7//1 81//1 200//1 104//1
f 81//1 36//1 172//1 200//1
f 68//1 201//1 71//1 2//1
f 24//1 173//1 201//1 68//1
f 173//1 62//1 171//1 201//1
f 168//1 202//1 170//1 61//1
f 23//1 103//1 202//1 168//1
f 103//1 6//1 115//1 202//1
f 110//1 203//1 169//1 30//1
f 1//1 67//1 203//1 110//1
f 67//1 23//1 168//1 203//1
f 74//1 204//1 81//1 7//1
f 30//1 169//1 204//1 74//1
f 169//1 61//1 167//1 204//1
f 38//1 119//1 205//1 166//1
f 119//1 15//1 117//1 205//1
f 4//1 83//1 206//1 101//1
f 83//1 38//1 166//1 206//1
f 163//1 207//1 165//1 60//1
f 27//1 107//1 207//1 163//1
f 107//1 13//1 118//1 207//1
f 108//1 208//1 164//1 28//1
f 2//1 71//1 208//1 108//1
f 71//1 27//1 163//1 208//1
f 72//1 209//1 83//1 4//1
f 28//1 164//1 209//1 72//1
f 164//1 60//1 162//1 209//1
f 159//1 210//1 161//1 59//1
f 31//1 111//1 210//1 159//1
f 111//1 1//1 110//1 210//1
f 121//1 211//1 160//1 40//1
f 9//1 76//1 211//1 121//1
f 76//1 31//1 159//1 211//1
f 85//1 212//1 86//1 16//1
f 40//1 160//1 212//1 85//1
f 160//1 59//1 158//1 212//1
f 88//1 213//1 89//1 17//1
f 154//1 214//1 156//1 58//1
f 45//1 126//1 214//1 154//1
f 126//1 18//1 125//1 214//1
f 105//1 215//1 155//1 25//1
f 8//1 92//1 215//1 105//1
f 92//1 45//1 154//1 215//1
f 69//1 216//1 70//1 3//1
f 25//1 155//1 216//1 69//1
f 155//1 58//1 153//1 216//1
f 75//1 217//1 92//1 8//1
f 149//1 218//1 151//1 57//1
f 48//1 129//1 218//1 149//1
f 129//1 19//1 127//1 218//1
f 102//1 219//1 150//1 22//1
f 5//1 95//1 219//1 102//1
f 95//1 48//1 149//1 219//1
f 66//1 220//1 67//1 1//1
f 22//1 150//1 220//1 66//1
f 150//1 57//1 148//1 220//1
f 145//1 221//1 147//1 56//1
f 26//1 106//1 221//1 145//1
f 106//1 10//1 128//1 221//1
f 109//1 222//1 146//1 29//1
f 3//1 70//1 222//1 109//1
f 70//1 26//1 145//1 222//1
f 73//1 223//1 95//1 5//1
f 29//1 146//1 223//1 73//1
f 146//1 56//1 144//1 223//1
f 141//1 224//1 143//1 55//1
f 32//1 112//1 224//1 141//1
f 112//1 3//1 109//1 224//1
f 131//1 225//1 142//1 50//1
f 11//1 77//1 225//1 131//1
f 77//1 32//1 141//1 225//1
f 97//1 226//1 98//1 20//1
f 50//1 142//1 226//1 97//1
f 142//1 55//1 140//1 226//1
f 137//1 227//1 139//1 54//1
f 33//1 113//1 227//1 137//1
f 113//1 2//1 108//1 227//1
f 134//1 228//1 138//1 52//1
f 12//1 78//1 228//1 134//1
f 78//1 33//1 137//1 228//1
f 99//1 229//1 100//1 21//1
f 52//1 138//1 229//1 99//1
f 138//1 54//1 136//1 229//1
f 136//1 230//1 135//1 53//1
f 54//1 139//1 230//1 136//1
f 139//1 28//1 72//1 230//1
f 140//1 231//1 132//1 51//1
f 55//1 143//1 231//1 140//1
f 143//1 29//1 73//1 231//1
f 144//1 232//1 129//1 48//1
f 56//1 147//1 232//1 144//1
f 147//1 47//1 94//1 232//1
f 148//1 233//1 103//1 23//1
f 57//1 151//1 233//1 148//1
f 151//1 46//1 93//1 233//1
f 152//1 234//1 126//1 45//1
f 153//1 235//1 106//1 26//1
f 58//1 156//1 235//1 153//1
f 156//1 44//1 90//1 235//1
f 157//1 236//1 124//1 43//1
f 158//1 237//1 122//1 41//1
f 59//1 161//1 237//1 158//1
f 161//1 30//1 74//1 237//1
f 162//1 238//1 119//1 38//1
f 60//1 165//1 238//1 162//1
f 165//1 37//1 82//1 238//1
f 167//1 239//1 116//1 36//1
f 61//1 170//1 239//1 167//1
f 170//1 35//1 80//1 239//1
f 171//1 240//1 107//1 27//1
f 62//1 174//1 240//1 171//1
f 174//1 34//1 79//1 240//1
f 175//1 241//1 113//1 33//1
f 63//1 178//1 241//1 175//1
f 178//1 24//1 68//1 241//1
f 179//1 242//1 112//1 32//1
f 64//1 182//1 242//1 179//1
f 182//1 25//1 69//1 242//1
f 183//1 243//1 111//1 31//1
f 65//1 186//1 243//1 183//1
f 186//1 22//1 66//1 243//1
